<mxfile host="app.diagrams.net" modified="2021-10-04T14:54:27.120Z" agent="5.0 (Windows NT 10.0; Win64; x64) AppleWebKit/537.36 (KHTML, like Gecko) Chrome/94.0.4606.61 Safari/537.36" etag="epAtSH7I97hNIcI9t1-r" version="15.4.0" type="github">
  <diagram id="qoBwuX_KRWsHxQH0upW-" name="Page-1">
    <mxGraphModel dx="2894" dy="2142" grid="1" gridSize="10" guides="1" tooltips="1" connect="1" arrows="1" fold="1" page="1" pageScale="1" pageWidth="850" pageHeight="1100" math="0" shadow="0">
      <root>
        <mxCell id="0" />
        <mxCell id="1" parent="0" />
        <mxCell id="cGqSHI6FsU9cF26Kj_ui-50" value="" style="shape=image;verticalLabelPosition=bottom;labelBackgroundColor=#ffffff;verticalAlign=top;aspect=fixed;imageAspect=0;image=data:image/png,iVBORw0KGgoAAAANSUhEUgAAAmAAAAC8CAYAAADfCBKtAAASA0lEQVR4Ae3ZUW5cxxEF0PnwxyyBn1yedqJlcBlc3gRCgniubBmCu98lm3UCBGAl8uuuU/dxSuPbY+B/3t/fH6+vr4/b7ea/DGRABmRABmRABv6SgR97wtvb22Vb0u2yJ3/iB7+8vPwF2jJmGZUBGZABGZABGXjOwP1+v2ybGbmAPeP62csmAzIgAzIgAzLwqwxctYGNX8CugvVcAgQIECBA4EyB52Xsqg4sYFfJei4BAgQIECBwpIAF7KKxNWAvurrHEiBAgAABAhcLNPYE34BdPESPJ0CAAAECBM4SsIBdNK8G7EVX91gCBAgQIEDgYoHGnuAbsIuH6PEECBAgQIDAWQIWsIvm1YC96OoeS4AAAQIECFws0NgTfAN28RA9ngABAgQIEDhLwAJ20bwasBdd3WMJECBAgACBiwUae4JvwC4eoscTIECAAAECZwlYwC6aVwP2oqt7LAECBAgQIHCxQGNP8A3YxUP0eAIECBAgQOAsAQvYRfNqwF50dY8lQIAAAQIELhZo7Am+Abt4iB5PgAABAgQInCVgAbtoXg3Yi67usQQIECBAgMDFAo09wTdgFw/R4wkQIECAAIGzBCxgF82rAXvR1T2WAAECBAgQuFigsSf4BuziIXo8AQIECBAgcJaABeyieTVgL7q6xxIgQIAAAQIXCzT2BN+AXTxEjydAgAABAgTOErCAXTSvBuxFV/dYAgQIECBA4GKBxp7gG7CLh+jxBAgQIECAwFkCFrCL5tWAvejqHkuAAAECBAhcLNDYE3wDdvEQT3j8+/v74/X19fEcOD/feNwYeA9kQAb+m4EfnxFvb28nfKRtuePz3Lc88G8eYgH7G5Rp/9PLy4tlw7IhAzIgAzLwjxm43+9jPh4tYBeNugF70dUveeyzh5/9jV8GZEAGZOBXGbjkQ+gTPvS5/6uu5xuwq2QPem4jaAdxuCoBAgQIPAlM/Ixo9GwBewrZ1B8bQZtqq28CBAicLjDxM6LRswXs9Ddjw/0bQdtwTY8gQIAAgQ8QmPgZ0ejZAvYBYf5sRzaC9tl6dh8CBAgQ+D2BiZ8RjZ4tYL+Xvy/9pxpB+9KAmiNAgMAXFpj4GdHo2QL2hV+a322tEbTfvYs/R4AAAQKfS2DiZ0SjZwvY58r5h9ymEbQPacyhBAgQILAsMPEzotGzBWw5muc/oBG085V0QIAAgZkCEz8jGj1bwGa+T9F1I2hxoIIAAQIEjhGY+BnR6NkCdswrcN1FG0G77vaeTIAAAQJXCkz8jGj0bAG7MrWHPLsRtEMoXJMAAQIEfhKY+BnR6NkC9lPQJpaNoE101TMBAgS+gsDEz4hGzxawr/B2LPbQCNriFf3jBAgQIPBBAhM/Ixo9W8A+KNCf6dhG0D5Tv+5CgAABAr8vMPEzotGzBez3M/hl/2QjaCfivb+/P15fXx/PPn6+8bgxmPAe/Hj3397eTvzVtf3Oz/Pe/vBP+sBGzxawTzr85rUaQWv2s+usl5cXy4ZlQwYGZ+B+v+/6dXL0cyZ+RjR6toAd/VrsuXwjaHtu2n3Ks4uffesjAzMz0P2t8zlPe87+57zh/ls1eraA7Z/bcU9sBO04lMcjvvk48f7uTIDAvxPwOzHdJno0eraAZc5GVo2gnQjL5cSpuTOBdQHvfhpO9Gj0bAHLnI2sGkE7EZbLiVNzZwLrAt79NJzo0ejZApY5G1k1gnYiLJcTp+bOBNYFvPtpONGj0bMFLHM2smoE7URYLidOzZ0JrAt499NwokejZwtY5mxk1QjaibBcTpyaOxNYF/Dup+FEj0bPFrDM2ciqEbQTYbmcODV3JrAu4N1Pw4kejZ4tYJmzkVUjaCfCcjlxau5MYF3Au5+GEz0aPVvAMmcjq0bQToTlcuLU3JnAuoB3Pw0nejR6toBlzkZWjaCdCMvlxKm5M4F1Ae9+Gk70aPRsAcucjawaQTsRlsuJU3NnAusC3v00nOjR6NkCljkbWTWCdiIslxOn5s4E1gW8+2k40aPRswUsczayagTtRFguJ07NnQmsC3j303CiR6NnC1jmbGTVCNqJsFxOnJo7E1gX8O6n4USPRs8WsMzZyKoRtBNhuZw4NXcmsC7g3U/DiR6Nni1gmbORVSNoJ8JyOXFq7kxgXcC7n4YTPRo9W8AyZyOrRtBOhOVy4tTcmcC6gHc/DSd6NHq2gGXORlaNoJ0Iy+XEqbkzgXUB734aTvRo9GwBy5yNrBpBOxGWy4lTc2cC6wLe/TSc6NHoub6Avb+/P15fXx/PzU3/+Y8//uBxu/3fgMefFj/eDR7p8eP3x9vbW35CqAhsFHj+TNr42GMfNdGj0XN9AXt5efn/B+1zg37ODxkePGRABn4nAxbS/XvNs/v+p5/3xIkejZ7rC9hzU372ASMDMiAD6xm43+/nfap/4hs/Z/ITX7N2tYkejZ4/dAGrpecTH9QY8idu/y9X45EkPH7t8Wzj5/qv8hzMF6ue8/TFWvtX7Uz0aPRcf2sbTf2rhH3QP8Qj4XnwSIGs5INHClxTyVm6TvRo9GwBy5zVq8aQ600tHMgj8XjwSIGs5CM9dlVcU3KiR6NnC1jmrF41hlxvauFAHonHg0cKZCUf6bGr4pqSEz0aPVvAMmf1qjHkelMLB/JIPB48UiAr+UiPXRXXlJzo0ejZApY5q1eNIdebWjiQR+Lx4JECWclHeuyquKbkRI9GzxawzFm9agy53tTCgTwSjwePFMhKPtJjV8U1JSd6NHq2gGXO6lVjyPWmFg7kkXg8eKRAVvKRHrsqrik50aPRswUsc1avGkOuN7VwII/E48EjBbKSj/TYVXFNyYkejZ4tYJmzetUYcr2phQN5JB4PHimQlXykx66Ka0pO9Gj0bAHLnNWrxpDrTS0cyCPxePBIgazkIz12VVxTcqJHo2cLWOasXjWGXG9q4UAeiceDRwpkJR/psavimpITPRo9W8AyZ/WqMeR6UwsH8kg8HjxSICv5SI9dFdeUnOjR6NkCljmrV40h15taOJBH4vHgkQJZyUd67Kq4puREj0bPFrDMWb1qDLne1MKBPBKPB48UyEo+0mNXxTUlJ3o0eraAZc7qVWPI9aYWDuSReDx4pEBW8pEeuyquKTnRo9GzBSxzVq8aQ643tXAgj8TjwSMFspKP9NhVcU3JiR6Nni1gmbN61RhyvamFA3kkHg8eKZCVfKTHroprSk70aPRsAcuc1avGkOtNLRzII/F48EiBrOQjPXZVXFNyokejZwtY5qxeNYZcb2rhQB6Jx4NHCmQlH+mxq+KakhM9Gj1bwDJn9aox5HpTCwfySDwePFIgK/lIj10V15Sc6NHo2QKWOatXjSHXm1o4kEfi8eCRAlnJR3rsqrim5ESPRs8WsMxZvWoMud7UwoE8Eo8HjxTISj7SY1fFNSUnejR6toBlzupVY8j1phYO5JF4PHikQFbykR67Kq4pOdGj0bMFLHNWrxpDrje1cCCPxOPBIwWyko/02FVxTcmJHo2eLWCZs3rVGHK9qYUDeSQeDx4pkJV8pMeuimtKTvRo9GwBy5zVq8aQ600tHMgj8XjwSIGs5CM9dlVcU3KiR6NnC1jmrF41hlxvauFAHonHg0cKZCUf6bGr4pqSEz0aPVvAMmf1qjHkelMLB/JIPB48UiAr+UiPXRXXlJzo0ejZApY5q1eNIdebWjiQR+Lx4JECWclHeuyquKbkRI9GzxawzFm9agy53tTCgTwSjwePFMhKPtJjV8U1JSd6NHq2gGXO6lVjyPWmFg7kkXg8eKRAVvKRHrsqrik50aPRswUsc1avGkOuN7VwII/E48EjBbKSj/TYVXFNyYkejZ4tYJmzetUYcr2phQN5JB4PHimQlXykx66Ka0pO9Gj0bAHLnNWrxpDrTS0cyCPxePBIgazkIz12VVxTcqJHo2cLWOasXjWGXG9q4UAeiceDRwpkJR/psavimpITPRo9W8AyZ/WqMeR6UwsH8kg8HjxSICv5SI9dFdeUnOjR6NkCljmrV40h15taOJBH4vHgkQJZyUd67Kq4puREj0bPFrDMWb1qDLne1MKBPBKPB48UyEo+0mNXxTUlJ3o0eraAZc7qVWPI9aYWDuSReDx4pEBW8pEeuyquKTnRo9GzBSxzVq8aQ643tXAgj8TjwSMFspKP9NhVcU3JiR6Nni1gmbN61RhyvamFA3kkHg8eKZCVfKTHroprSk70aPRsAcuc1avGkOtNLRzII/F48EiBrOQjPXZVXFNyokejZwtY5qxeNYZcb2rhQB6Jx4NHCmQlH+mxq+KakhM9Gj1bwDJn9aox5HpTCwfySDwePFIgK/lIj10V15Sc6NHo2QKWOatXjSHXm1o4kEfi8eCRAlnJR3rsqrim5ESPRs8WsMxZvWoMud7UwoE8Eo8HjxTISj7SY1fFNSUnejR6toBlzupVY8j1phYO5JF4PHikQFbykR67Kq4pOdGj0bMFLHNWrxpDrje1cCCPxOPBIwWyko/02FVxTcmJHo2eLWCZs3rVGHK9qYUDeSQeDx4pkJV8pMeuimtKTvRo9GwBy5zVq8aQ600tHMgj8XjwSIGs5CM9dlVcU3KiR6NnC1jmrF41hlxvauFAHonHg0cKZCUf6bGr4pqSEz0aPVvAMmf1qjHkelMLB/JIPB48UiAr+UiPXRXXlJzo0ejZApY5q1eNIdebWjiQR+Lx4JECWclHeuyquKbkRI9GzxawzFm9agy53tTCgTwSjwePFMhKPtJjV8U1JSd6NHq2gGXO6lVjyPWmFg7kkXg8eKRAVvKRHrsqrik50aPRswUsc1avGkOuN7VwII/E48EjBbKSj/TYVXFNyYkejZ4tYJmzetUYcr2phQN5JB4PHimQlXykx66Ka0pO9Gj0bAHLnNWrxpDrTS0cyCPxePBIgazkIz12VVxTcqJHo2cLWOasXjWGXG9q4UAeiceDRwpkJR/psavimpITPRo9W8AyZ/WqMeR6UwsH8kg8HjxSICv5SI9dFdeUnOjR6Pn2/v7+eH19fTwf5ucbjxsD74EMyIAMyIAM7M7Aj53r7e3tcXt5ebFsWDZkQAZkQAZkQAZkoJSB+/3+w9p2y0AGZEAGZEAGZEAGyhn4Ezz/ra9qisD379/9rcdfRGRABmRABv4xA9++fZvysXhZnz8teBawy6Q9mAABAgQIECDwPwELmCgQIECAAAECBMoCFrAyuOMIECBAgAABAhYwGSBAgAABAgQIlAUsYGVwxxEgQIAAAQIELGAyQIAAAQIECBAoC1jAyuCOI0CAAAECBAhYwGSAAAECBAgQIFAWsICVwR1HgAABAgQIELCAyQABAgQIECBAoCxgASuDO44AAQIECBAgYAGTAQIECBAgQIBAWcACVgZ3HAECBAgQIEDAAiYDBAgQIECAAIGygAWsDO44AgQIECBAgIAFTAYIECBAgAABAmUBC1gZ3HEECBAgQIAAAQuYDBAgQIAAAQIEygIWsDK44wgQIECAAAECFjAZIECAAAECBAiUBSxgZXDHESBAgAABAgQsYDJAgAABAgQIECgLWMDK4I4jQIAAAQIECFjAZIAAAQIECBAgUBawgJXBHUeAAAECBAgQsIDJAAECBAgQIECgLGABK4M7jgABAgQIECBgAZMBAgQIECBAgEBZwAJWBnccAQIECBAgQMACJgMECBAgQIAAgbKABawM7jgCBAgQIECAgAVMBggQIECAAAECZQELWBnccQQIECBAgAABC5gMECBAgAABAgTKAhawMrjjCBAgQIAAAQIWMBkgQIAAAQIECJQFLGBlcMcRIECAAAECBCxgMkCAAAECBAgQKAtYwMrgjiNAgAABAgQIWMBkgAABAgQIECBQFrCAlcEdR4AAAQIECBCwgMkAAQIECBAgQKAsYAErgzuOAAECBAgQIGABkwECBAgQIECAQFnAAlYGdxwBAgQIECBAwAImAwQIECBAgACBsoAFrAzuOAIECBAgQICABUwGCBAgQIAAAQJlAQtYGdxxBAgQIECAAAELmAwQIECAAAECBMoCFrAyuOMIECBAgAABAhYwGSBAgAABAgQIlAV+uYD99H881DcGNwbeAxmQARmQARnYnoH7/W7JsGTIgAzIgAzIgAzIQDMD379/B94Ed5a8yYAMyIAMyMDoDHz79u3xHzL8na6+sJJTAAAAAElFTkSuQmCC;" vertex="1" parent="1">
          <mxGeometry x="-390" y="-870" width="1448.85" height="448" as="geometry" />
        </mxCell>
        <mxCell id="cGqSHI6FsU9cF26Kj_ui-51" value="" style="group" vertex="1" connectable="0" parent="1">
          <mxGeometry x="-120" y="-160" width="1440" height="440" as="geometry" />
        </mxCell>
        <mxCell id="cGqSHI6FsU9cF26Kj_ui-8" value="" style="rounded=0;whiteSpace=wrap;html=1;fillColor=#EEEEEE;" vertex="1" parent="cGqSHI6FsU9cF26Kj_ui-51">
          <mxGeometry x="150" width="1240" height="310" as="geometry" />
        </mxCell>
        <mxCell id="cGqSHI6FsU9cF26Kj_ui-13" value="" style="rounded=0;whiteSpace=wrap;html=1;fillColor=#EEEEEE;" vertex="1" parent="cGqSHI6FsU9cF26Kj_ui-51">
          <mxGeometry x="315" y="70" width="925" height="240" as="geometry" />
        </mxCell>
        <mxCell id="cGqSHI6FsU9cF26Kj_ui-14" value="&amp;nbsp;&lt;span style=&quot;white-space: pre&quot;&gt;	&lt;/span&gt;" style="rounded=0;whiteSpace=wrap;html=1;fillColor=#EEEEEE;strokeColor=#000000;" vertex="1" parent="cGqSHI6FsU9cF26Kj_ui-51">
          <mxGeometry x="480" y="110" width="600" height="200" as="geometry" />
        </mxCell>
        <mxCell id="cGqSHI6FsU9cF26Kj_ui-1" value="R2" style="rounded=0;whiteSpace=wrap;html=1;fillColor=#DDDDDD;strokeColor=#000000;" vertex="1" parent="cGqSHI6FsU9cF26Kj_ui-51">
          <mxGeometry x="80" y="160" width="160" height="150" as="geometry" />
        </mxCell>
        <mxCell id="cGqSHI6FsU9cF26Kj_ui-7" value="R1" style="rounded=0;whiteSpace=wrap;html=1;fillColor=#DDDDDD;" vertex="1" parent="cGqSHI6FsU9cF26Kj_ui-51">
          <mxGeometry y="310" width="1440" height="130" as="geometry" />
        </mxCell>
        <mxCell id="cGqSHI6FsU9cF26Kj_ui-9" value="R3" style="rounded=0;whiteSpace=wrap;html=1;fillColor=#EEEEEE;strokeColor=#000000;fontSize=32;fontStyle=1;fontFamily=Courier New;" vertex="1" parent="cGqSHI6FsU9cF26Kj_ui-51">
          <mxGeometry x="240" y="160" width="160" height="150" as="geometry" />
        </mxCell>
        <mxCell id="cGqSHI6FsU9cF26Kj_ui-10" value="R4" style="rounded=0;whiteSpace=wrap;html=1;fillColor=#EEEEEE;strokeColor=#000000;fontSize=32;fontStyle=1;fontFamily=Courier New;" vertex="1" parent="cGqSHI6FsU9cF26Kj_ui-51">
          <mxGeometry x="400" y="160" width="160" height="150" as="geometry" />
        </mxCell>
        <mxCell id="cGqSHI6FsU9cF26Kj_ui-11" value="R5" style="rounded=0;whiteSpace=wrap;html=1;fillColor=#EEEEEE;strokeColor=#000000;fontSize=32;fontStyle=1;fontFamily=Courier New;" vertex="1" parent="cGqSHI6FsU9cF26Kj_ui-51">
          <mxGeometry x="560" y="160" width="160" height="150" as="geometry" />
        </mxCell>
        <mxCell id="cGqSHI6FsU9cF26Kj_ui-12" value="R6" style="rounded=0;whiteSpace=wrap;html=1;fillColor=#EEEEEE;fontSize=32;fontStyle=1;fontFamily=Courier New;" vertex="1" parent="cGqSHI6FsU9cF26Kj_ui-51">
          <mxGeometry x="720" y="160" width="160" height="150" as="geometry" />
        </mxCell>
        <mxCell id="cGqSHI6FsU9cF26Kj_ui-15" value="R7" style="text;html=1;strokeColor=none;fillColor=none;align=center;verticalAlign=middle;whiteSpace=wrap;rounded=0;fontSize=32;fontFamily=Courier New;fontStyle=1" vertex="1" parent="cGqSHI6FsU9cF26Kj_ui-51">
          <mxGeometry x="960" y="220" width="60" height="30" as="geometry" />
        </mxCell>
        <mxCell id="cGqSHI6FsU9cF26Kj_ui-17" value="R9" style="text;html=1;strokeColor=none;fillColor=none;align=center;verticalAlign=middle;whiteSpace=wrap;rounded=0;fontSize=32;fontFamily=Courier New;fontStyle=1" vertex="1" parent="cGqSHI6FsU9cF26Kj_ui-51">
          <mxGeometry x="1300" y="220" width="60" height="30" as="geometry" />
        </mxCell>
        <mxCell id="cGqSHI6FsU9cF26Kj_ui-52" value="R2" style="rounded=0;whiteSpace=wrap;html=1;fillColor=#EEEEEE;strokeColor=#000000;fontSize=32;fontStyle=1;fontFamily=Courier New;" vertex="1" parent="cGqSHI6FsU9cF26Kj_ui-51">
          <mxGeometry x="80" y="160" width="160" height="150" as="geometry" />
        </mxCell>
        <mxCell id="cGqSHI6FsU9cF26Kj_ui-53" value="R1" style="rounded=0;whiteSpace=wrap;html=1;fillColor=#EEEEEE;fontSize=32;fontStyle=1;fontFamily=Courier New;" vertex="1" parent="cGqSHI6FsU9cF26Kj_ui-51">
          <mxGeometry y="310" width="1440" height="130" as="geometry" />
        </mxCell>
        <mxCell id="cGqSHI6FsU9cF26Kj_ui-54" value="R8" style="text;html=1;strokeColor=none;fillColor=none;align=center;verticalAlign=middle;whiteSpace=wrap;rounded=0;fontSize=32;fontFamily=Courier New;fontStyle=1" vertex="1" parent="cGqSHI6FsU9cF26Kj_ui-51">
          <mxGeometry x="1140" y="220" width="60" height="30" as="geometry" />
        </mxCell>
        <mxCell id="cGqSHI6FsU9cF26Kj_ui-55" value="" style="html=1;shadow=0;dashed=0;align=center;verticalAlign=middle;shape=mxgraph.arrows2.arrow;dy=0.64;dx=15.13;direction=north;notch=0;fontFamily=Courier New;fontSize=32;strokeColor=#000000;fillColor=#f8cecc;" vertex="1" parent="cGqSHI6FsU9cF26Kj_ui-51">
          <mxGeometry x="100" y="160" width="20" height="30" as="geometry" />
        </mxCell>
        <mxCell id="cGqSHI6FsU9cF26Kj_ui-57" value="" style="html=1;shadow=0;dashed=0;align=center;verticalAlign=middle;shape=mxgraph.arrows2.arrow;dy=0.64;dx=15.13;direction=north;notch=0;fontFamily=Courier New;fontSize=32;strokeColor=#000000;fillColor=#fff2cc;" vertex="1" parent="cGqSHI6FsU9cF26Kj_ui-51">
          <mxGeometry x="120" y="160" width="20" height="30" as="geometry" />
        </mxCell>
        <mxCell id="cGqSHI6FsU9cF26Kj_ui-58" value="" style="html=1;shadow=0;dashed=0;align=center;verticalAlign=middle;shape=mxgraph.arrows2.arrow;dy=0.64;dx=15.13;direction=north;notch=0;fontFamily=Courier New;fontSize=32;strokeColor=#000000;fillColor=#d5e8d4;" vertex="1" parent="cGqSHI6FsU9cF26Kj_ui-51">
          <mxGeometry x="140" y="160" width="20" height="30" as="geometry" />
        </mxCell>
        <mxCell id="cGqSHI6FsU9cF26Kj_ui-59" value="" style="html=1;shadow=0;dashed=0;align=center;verticalAlign=middle;shape=mxgraph.arrows2.arrow;dy=0.64;dx=15.13;direction=north;notch=0;fontFamily=Courier New;fontSize=32;strokeColor=#000000;fillColor=#dae8fc;" vertex="1" parent="cGqSHI6FsU9cF26Kj_ui-51">
          <mxGeometry x="160" y="160" width="20" height="30" as="geometry" />
        </mxCell>
        <mxCell id="cGqSHI6FsU9cF26Kj_ui-79" value="" style="html=1;shadow=0;dashed=0;align=center;verticalAlign=middle;shape=mxgraph.arrows2.arrow;dy=0.64;dx=15.13;direction=north;notch=0;fontFamily=Courier New;fontSize=32;" vertex="1" parent="cGqSHI6FsU9cF26Kj_ui-51">
          <mxGeometry x="180" y="160" width="20" height="30" as="geometry" />
        </mxCell>
        <mxCell id="cGqSHI6FsU9cF26Kj_ui-80" value="" style="html=1;shadow=0;dashed=0;align=center;verticalAlign=middle;shape=mxgraph.arrows2.arrow;dy=0.64;dx=15.13;direction=north;notch=0;fontFamily=Courier New;fontSize=32;fillColor=#ffe6cc;strokeColor=#000000;" vertex="1" parent="cGqSHI6FsU9cF26Kj_ui-51">
          <mxGeometry x="200" y="160" width="20" height="30" as="geometry" />
        </mxCell>
        <mxCell id="cGqSHI6FsU9cF26Kj_ui-133" value="" style="group" vertex="1" connectable="0" parent="cGqSHI6FsU9cF26Kj_ui-51">
          <mxGeometry x="740" y="160" width="120" height="30" as="geometry" />
        </mxCell>
        <mxCell id="cGqSHI6FsU9cF26Kj_ui-134" value="" style="html=1;shadow=0;dashed=0;align=center;verticalAlign=middle;shape=mxgraph.arrows2.arrow;dy=0.64;dx=15.13;direction=north;notch=0;fontFamily=Courier New;fontSize=32;strokeColor=#000000;fillColor=#f8cecc;" vertex="1" parent="cGqSHI6FsU9cF26Kj_ui-133">
          <mxGeometry width="20" height="30" as="geometry" />
        </mxCell>
        <mxCell id="cGqSHI6FsU9cF26Kj_ui-135" value="" style="html=1;shadow=0;dashed=0;align=center;verticalAlign=middle;shape=mxgraph.arrows2.arrow;dy=0.64;dx=15.13;direction=north;notch=0;fontFamily=Courier New;fontSize=32;strokeColor=#000000;fillColor=#fff2cc;" vertex="1" parent="cGqSHI6FsU9cF26Kj_ui-133">
          <mxGeometry x="20" width="20" height="30" as="geometry" />
        </mxCell>
        <mxCell id="cGqSHI6FsU9cF26Kj_ui-136" value="" style="html=1;shadow=0;dashed=0;align=center;verticalAlign=middle;shape=mxgraph.arrows2.arrow;dy=0.64;dx=15.13;direction=north;notch=0;fontFamily=Courier New;fontSize=32;strokeColor=#000000;fillColor=#d5e8d4;" vertex="1" parent="cGqSHI6FsU9cF26Kj_ui-133">
          <mxGeometry x="40" width="20" height="30" as="geometry" />
        </mxCell>
        <mxCell id="cGqSHI6FsU9cF26Kj_ui-137" value="" style="html=1;shadow=0;dashed=0;align=center;verticalAlign=middle;shape=mxgraph.arrows2.arrow;dy=0.64;dx=15.13;direction=north;notch=0;fontFamily=Courier New;fontSize=32;strokeColor=#000000;fillColor=#dae8fc;" vertex="1" parent="cGqSHI6FsU9cF26Kj_ui-133">
          <mxGeometry x="60" width="20" height="30" as="geometry" />
        </mxCell>
        <mxCell id="cGqSHI6FsU9cF26Kj_ui-138" value="" style="html=1;shadow=0;dashed=0;align=center;verticalAlign=middle;shape=mxgraph.arrows2.arrow;dy=0.64;dx=15.13;direction=north;notch=0;fontFamily=Courier New;fontSize=32;" vertex="1" parent="cGqSHI6FsU9cF26Kj_ui-133">
          <mxGeometry x="80" width="20" height="30" as="geometry" />
        </mxCell>
        <mxCell id="cGqSHI6FsU9cF26Kj_ui-139" value="" style="html=1;shadow=0;dashed=0;align=center;verticalAlign=middle;shape=mxgraph.arrows2.arrow;dy=0.64;dx=15.13;direction=north;notch=0;fontFamily=Courier New;fontSize=32;fillColor=#ffe6cc;strokeColor=#000000;" vertex="1" parent="cGqSHI6FsU9cF26Kj_ui-133">
          <mxGeometry x="100" width="20" height="30" as="geometry" />
        </mxCell>
        <mxCell id="cGqSHI6FsU9cF26Kj_ui-157" value="" style="group" vertex="1" connectable="0" parent="cGqSHI6FsU9cF26Kj_ui-51">
          <mxGeometry x="960" y="110" width="120" height="30" as="geometry" />
        </mxCell>
        <mxCell id="cGqSHI6FsU9cF26Kj_ui-158" value="" style="html=1;shadow=0;dashed=0;align=center;verticalAlign=middle;shape=mxgraph.arrows2.arrow;dy=0.64;dx=15.13;direction=north;notch=0;fontFamily=Courier New;fontSize=32;strokeColor=#000000;fillColor=#f8cecc;" vertex="1" parent="cGqSHI6FsU9cF26Kj_ui-157">
          <mxGeometry width="20" height="30" as="geometry" />
        </mxCell>
        <mxCell id="cGqSHI6FsU9cF26Kj_ui-159" value="" style="html=1;shadow=0;dashed=0;align=center;verticalAlign=middle;shape=mxgraph.arrows2.arrow;dy=0.64;dx=15.13;direction=north;notch=0;fontFamily=Courier New;fontSize=32;strokeColor=#000000;fillColor=#fff2cc;" vertex="1" parent="cGqSHI6FsU9cF26Kj_ui-157">
          <mxGeometry x="20" width="20" height="30" as="geometry" />
        </mxCell>
        <mxCell id="cGqSHI6FsU9cF26Kj_ui-160" value="" style="html=1;shadow=0;dashed=0;align=center;verticalAlign=middle;shape=mxgraph.arrows2.arrow;dy=0.64;dx=15.13;direction=north;notch=0;fontFamily=Courier New;fontSize=32;strokeColor=#000000;fillColor=#d5e8d4;" vertex="1" parent="cGqSHI6FsU9cF26Kj_ui-157">
          <mxGeometry x="40" width="20" height="30" as="geometry" />
        </mxCell>
        <mxCell id="cGqSHI6FsU9cF26Kj_ui-161" value="" style="html=1;shadow=0;dashed=0;align=center;verticalAlign=middle;shape=mxgraph.arrows2.arrow;dy=0.64;dx=15.13;direction=north;notch=0;fontFamily=Courier New;fontSize=32;strokeColor=#000000;fillColor=#dae8fc;" vertex="1" parent="cGqSHI6FsU9cF26Kj_ui-157">
          <mxGeometry x="60" width="20" height="30" as="geometry" />
        </mxCell>
        <mxCell id="cGqSHI6FsU9cF26Kj_ui-162" value="" style="html=1;shadow=0;dashed=0;align=center;verticalAlign=middle;shape=mxgraph.arrows2.arrow;dy=0.64;dx=15.13;direction=north;notch=0;fontFamily=Courier New;fontSize=32;" vertex="1" parent="cGqSHI6FsU9cF26Kj_ui-157">
          <mxGeometry x="80" width="20" height="30" as="geometry" />
        </mxCell>
        <mxCell id="cGqSHI6FsU9cF26Kj_ui-163" value="" style="html=1;shadow=0;dashed=0;align=center;verticalAlign=middle;shape=mxgraph.arrows2.arrow;dy=0.64;dx=15.13;direction=north;notch=0;fontFamily=Courier New;fontSize=32;fillColor=#ffe6cc;strokeColor=#000000;" vertex="1" parent="cGqSHI6FsU9cF26Kj_ui-157">
          <mxGeometry x="100" width="20" height="30" as="geometry" />
        </mxCell>
        <mxCell id="cGqSHI6FsU9cF26Kj_ui-150" value="" style="group" vertex="1" connectable="0" parent="cGqSHI6FsU9cF26Kj_ui-51">
          <mxGeometry x="1120" y="70" width="120" height="30" as="geometry" />
        </mxCell>
        <mxCell id="cGqSHI6FsU9cF26Kj_ui-151" value="" style="html=1;shadow=0;dashed=0;align=center;verticalAlign=middle;shape=mxgraph.arrows2.arrow;dy=0.64;dx=15.13;direction=north;notch=0;fontFamily=Courier New;fontSize=32;strokeColor=#000000;fillColor=#f8cecc;" vertex="1" parent="cGqSHI6FsU9cF26Kj_ui-150">
          <mxGeometry width="20" height="30" as="geometry" />
        </mxCell>
        <mxCell id="cGqSHI6FsU9cF26Kj_ui-152" value="" style="html=1;shadow=0;dashed=0;align=center;verticalAlign=middle;shape=mxgraph.arrows2.arrow;dy=0.64;dx=15.13;direction=north;notch=0;fontFamily=Courier New;fontSize=32;strokeColor=#000000;fillColor=#fff2cc;" vertex="1" parent="cGqSHI6FsU9cF26Kj_ui-150">
          <mxGeometry x="20" width="20" height="30" as="geometry" />
        </mxCell>
        <mxCell id="cGqSHI6FsU9cF26Kj_ui-153" value="" style="html=1;shadow=0;dashed=0;align=center;verticalAlign=middle;shape=mxgraph.arrows2.arrow;dy=0.64;dx=15.13;direction=north;notch=0;fontFamily=Courier New;fontSize=32;strokeColor=#000000;fillColor=#d5e8d4;" vertex="1" parent="cGqSHI6FsU9cF26Kj_ui-150">
          <mxGeometry x="40" width="20" height="30" as="geometry" />
        </mxCell>
        <mxCell id="cGqSHI6FsU9cF26Kj_ui-154" value="" style="html=1;shadow=0;dashed=0;align=center;verticalAlign=middle;shape=mxgraph.arrows2.arrow;dy=0.64;dx=15.13;direction=north;notch=0;fontFamily=Courier New;fontSize=32;strokeColor=#000000;fillColor=#dae8fc;" vertex="1" parent="cGqSHI6FsU9cF26Kj_ui-150">
          <mxGeometry x="60" width="20" height="30" as="geometry" />
        </mxCell>
        <mxCell id="cGqSHI6FsU9cF26Kj_ui-155" value="" style="html=1;shadow=0;dashed=0;align=center;verticalAlign=middle;shape=mxgraph.arrows2.arrow;dy=0.64;dx=15.13;direction=north;notch=0;fontFamily=Courier New;fontSize=32;" vertex="1" parent="cGqSHI6FsU9cF26Kj_ui-150">
          <mxGeometry x="80" width="20" height="30" as="geometry" />
        </mxCell>
        <mxCell id="cGqSHI6FsU9cF26Kj_ui-156" value="" style="html=1;shadow=0;dashed=0;align=center;verticalAlign=middle;shape=mxgraph.arrows2.arrow;dy=0.64;dx=15.13;direction=north;notch=0;fontFamily=Courier New;fontSize=32;fillColor=#ffe6cc;strokeColor=#000000;" vertex="1" parent="cGqSHI6FsU9cF26Kj_ui-150">
          <mxGeometry x="100" width="20" height="30" as="geometry" />
        </mxCell>
        <mxCell id="cGqSHI6FsU9cF26Kj_ui-140" value="" style="group" vertex="1" connectable="0" parent="cGqSHI6FsU9cF26Kj_ui-51">
          <mxGeometry x="1270" width="120" height="30" as="geometry" />
        </mxCell>
        <mxCell id="cGqSHI6FsU9cF26Kj_ui-141" value="" style="html=1;shadow=0;dashed=0;align=center;verticalAlign=middle;shape=mxgraph.arrows2.arrow;dy=0.64;dx=15.13;direction=north;notch=0;fontFamily=Courier New;fontSize=32;strokeColor=#000000;fillColor=#f8cecc;" vertex="1" parent="cGqSHI6FsU9cF26Kj_ui-140">
          <mxGeometry width="20" height="30" as="geometry" />
        </mxCell>
        <mxCell id="cGqSHI6FsU9cF26Kj_ui-142" value="" style="html=1;shadow=0;dashed=0;align=center;verticalAlign=middle;shape=mxgraph.arrows2.arrow;dy=0.64;dx=15.13;direction=north;notch=0;fontFamily=Courier New;fontSize=32;strokeColor=#000000;fillColor=#fff2cc;" vertex="1" parent="cGqSHI6FsU9cF26Kj_ui-140">
          <mxGeometry x="20" width="20" height="30" as="geometry" />
        </mxCell>
        <mxCell id="cGqSHI6FsU9cF26Kj_ui-143" value="" style="html=1;shadow=0;dashed=0;align=center;verticalAlign=middle;shape=mxgraph.arrows2.arrow;dy=0.64;dx=15.13;direction=north;notch=0;fontFamily=Courier New;fontSize=32;strokeColor=#000000;fillColor=#d5e8d4;" vertex="1" parent="cGqSHI6FsU9cF26Kj_ui-140">
          <mxGeometry x="40" width="20" height="30" as="geometry" />
        </mxCell>
        <mxCell id="cGqSHI6FsU9cF26Kj_ui-144" value="" style="html=1;shadow=0;dashed=0;align=center;verticalAlign=middle;shape=mxgraph.arrows2.arrow;dy=0.64;dx=15.13;direction=north;notch=0;fontFamily=Courier New;fontSize=32;strokeColor=#000000;fillColor=#dae8fc;" vertex="1" parent="cGqSHI6FsU9cF26Kj_ui-140">
          <mxGeometry x="60" width="20" height="30" as="geometry" />
        </mxCell>
        <mxCell id="cGqSHI6FsU9cF26Kj_ui-145" value="" style="html=1;shadow=0;dashed=0;align=center;verticalAlign=middle;shape=mxgraph.arrows2.arrow;dy=0.64;dx=15.13;direction=north;notch=0;fontFamily=Courier New;fontSize=32;" vertex="1" parent="cGqSHI6FsU9cF26Kj_ui-140">
          <mxGeometry x="80" width="20" height="30" as="geometry" />
        </mxCell>
        <mxCell id="cGqSHI6FsU9cF26Kj_ui-146" value="" style="html=1;shadow=0;dashed=0;align=center;verticalAlign=middle;shape=mxgraph.arrows2.arrow;dy=0.64;dx=15.13;direction=north;notch=0;fontFamily=Courier New;fontSize=32;fillColor=#ffe6cc;strokeColor=#000000;" vertex="1" parent="cGqSHI6FsU9cF26Kj_ui-140">
          <mxGeometry x="100" width="20" height="30" as="geometry" />
        </mxCell>
        <mxCell id="cGqSHI6FsU9cF26Kj_ui-125" value="" style="group" vertex="1" connectable="0" parent="cGqSHI6FsU9cF26Kj_ui-51">
          <mxGeometry x="580" y="160" width="120" height="30" as="geometry" />
        </mxCell>
        <mxCell id="cGqSHI6FsU9cF26Kj_ui-126" value="" style="html=1;shadow=0;dashed=0;align=center;verticalAlign=middle;shape=mxgraph.arrows2.arrow;dy=0.64;dx=15.13;direction=north;notch=0;fontFamily=Courier New;fontSize=32;strokeColor=#000000;fillColor=#f8cecc;" vertex="1" parent="cGqSHI6FsU9cF26Kj_ui-125">
          <mxGeometry width="20" height="30" as="geometry" />
        </mxCell>
        <mxCell id="cGqSHI6FsU9cF26Kj_ui-127" value="" style="html=1;shadow=0;dashed=0;align=center;verticalAlign=middle;shape=mxgraph.arrows2.arrow;dy=0.64;dx=15.13;direction=north;notch=0;fontFamily=Courier New;fontSize=32;strokeColor=#000000;fillColor=#fff2cc;" vertex="1" parent="cGqSHI6FsU9cF26Kj_ui-125">
          <mxGeometry x="20" width="20" height="30" as="geometry" />
        </mxCell>
        <mxCell id="cGqSHI6FsU9cF26Kj_ui-128" value="" style="html=1;shadow=0;dashed=0;align=center;verticalAlign=middle;shape=mxgraph.arrows2.arrow;dy=0.64;dx=15.13;direction=north;notch=0;fontFamily=Courier New;fontSize=32;strokeColor=#000000;fillColor=#d5e8d4;" vertex="1" parent="cGqSHI6FsU9cF26Kj_ui-125">
          <mxGeometry x="40" width="20" height="30" as="geometry" />
        </mxCell>
        <mxCell id="cGqSHI6FsU9cF26Kj_ui-129" value="" style="html=1;shadow=0;dashed=0;align=center;verticalAlign=middle;shape=mxgraph.arrows2.arrow;dy=0.64;dx=15.13;direction=north;notch=0;fontFamily=Courier New;fontSize=32;strokeColor=#000000;fillColor=#dae8fc;" vertex="1" parent="cGqSHI6FsU9cF26Kj_ui-125">
          <mxGeometry x="60" width="20" height="30" as="geometry" />
        </mxCell>
        <mxCell id="cGqSHI6FsU9cF26Kj_ui-130" value="" style="html=1;shadow=0;dashed=0;align=center;verticalAlign=middle;shape=mxgraph.arrows2.arrow;dy=0.64;dx=15.13;direction=north;notch=0;fontFamily=Courier New;fontSize=32;" vertex="1" parent="cGqSHI6FsU9cF26Kj_ui-125">
          <mxGeometry x="80" width="20" height="30" as="geometry" />
        </mxCell>
        <mxCell id="cGqSHI6FsU9cF26Kj_ui-131" value="" style="html=1;shadow=0;dashed=0;align=center;verticalAlign=middle;shape=mxgraph.arrows2.arrow;dy=0.64;dx=15.13;direction=north;notch=0;fontFamily=Courier New;fontSize=32;fillColor=#ffe6cc;strokeColor=#000000;" vertex="1" parent="cGqSHI6FsU9cF26Kj_ui-125">
          <mxGeometry x="100" width="20" height="30" as="geometry" />
        </mxCell>
        <mxCell id="cGqSHI6FsU9cF26Kj_ui-117" value="" style="group" vertex="1" connectable="0" parent="cGqSHI6FsU9cF26Kj_ui-51">
          <mxGeometry x="420" y="160" width="120" height="30" as="geometry" />
        </mxCell>
        <mxCell id="cGqSHI6FsU9cF26Kj_ui-118" value="" style="html=1;shadow=0;dashed=0;align=center;verticalAlign=middle;shape=mxgraph.arrows2.arrow;dy=0.64;dx=15.13;direction=north;notch=0;fontFamily=Courier New;fontSize=32;strokeColor=#000000;fillColor=#f8cecc;" vertex="1" parent="cGqSHI6FsU9cF26Kj_ui-117">
          <mxGeometry width="20" height="30" as="geometry" />
        </mxCell>
        <mxCell id="cGqSHI6FsU9cF26Kj_ui-119" value="" style="html=1;shadow=0;dashed=0;align=center;verticalAlign=middle;shape=mxgraph.arrows2.arrow;dy=0.64;dx=15.13;direction=north;notch=0;fontFamily=Courier New;fontSize=32;strokeColor=#000000;fillColor=#fff2cc;" vertex="1" parent="cGqSHI6FsU9cF26Kj_ui-117">
          <mxGeometry x="20" width="20" height="30" as="geometry" />
        </mxCell>
        <mxCell id="cGqSHI6FsU9cF26Kj_ui-120" value="" style="html=1;shadow=0;dashed=0;align=center;verticalAlign=middle;shape=mxgraph.arrows2.arrow;dy=0.64;dx=15.13;direction=north;notch=0;fontFamily=Courier New;fontSize=32;strokeColor=#000000;fillColor=#d5e8d4;" vertex="1" parent="cGqSHI6FsU9cF26Kj_ui-117">
          <mxGeometry x="40" width="20" height="30" as="geometry" />
        </mxCell>
        <mxCell id="cGqSHI6FsU9cF26Kj_ui-121" value="" style="html=1;shadow=0;dashed=0;align=center;verticalAlign=middle;shape=mxgraph.arrows2.arrow;dy=0.64;dx=15.13;direction=north;notch=0;fontFamily=Courier New;fontSize=32;strokeColor=#000000;fillColor=#dae8fc;" vertex="1" parent="cGqSHI6FsU9cF26Kj_ui-117">
          <mxGeometry x="60" width="20" height="30" as="geometry" />
        </mxCell>
        <mxCell id="cGqSHI6FsU9cF26Kj_ui-122" value="" style="html=1;shadow=0;dashed=0;align=center;verticalAlign=middle;shape=mxgraph.arrows2.arrow;dy=0.64;dx=15.13;direction=north;notch=0;fontFamily=Courier New;fontSize=32;" vertex="1" parent="cGqSHI6FsU9cF26Kj_ui-117">
          <mxGeometry x="80" width="20" height="30" as="geometry" />
        </mxCell>
        <mxCell id="cGqSHI6FsU9cF26Kj_ui-123" value="" style="html=1;shadow=0;dashed=0;align=center;verticalAlign=middle;shape=mxgraph.arrows2.arrow;dy=0.64;dx=15.13;direction=north;notch=0;fontFamily=Courier New;fontSize=32;fillColor=#ffe6cc;strokeColor=#000000;" vertex="1" parent="cGqSHI6FsU9cF26Kj_ui-117">
          <mxGeometry x="100" width="20" height="30" as="geometry" />
        </mxCell>
        <mxCell id="cGqSHI6FsU9cF26Kj_ui-108" value="" style="group" vertex="1" connectable="0" parent="cGqSHI6FsU9cF26Kj_ui-51">
          <mxGeometry x="260" y="160" width="120" height="30" as="geometry" />
        </mxCell>
        <mxCell id="cGqSHI6FsU9cF26Kj_ui-109" value="" style="html=1;shadow=0;dashed=0;align=center;verticalAlign=middle;shape=mxgraph.arrows2.arrow;dy=0.64;dx=15.13;direction=north;notch=0;fontFamily=Courier New;fontSize=32;strokeColor=#000000;fillColor=#f8cecc;" vertex="1" parent="cGqSHI6FsU9cF26Kj_ui-108">
          <mxGeometry width="20" height="30" as="geometry" />
        </mxCell>
        <mxCell id="cGqSHI6FsU9cF26Kj_ui-110" value="" style="html=1;shadow=0;dashed=0;align=center;verticalAlign=middle;shape=mxgraph.arrows2.arrow;dy=0.64;dx=15.13;direction=north;notch=0;fontFamily=Courier New;fontSize=32;strokeColor=#000000;fillColor=#fff2cc;" vertex="1" parent="cGqSHI6FsU9cF26Kj_ui-108">
          <mxGeometry x="20" width="20" height="30" as="geometry" />
        </mxCell>
        <mxCell id="cGqSHI6FsU9cF26Kj_ui-111" value="" style="html=1;shadow=0;dashed=0;align=center;verticalAlign=middle;shape=mxgraph.arrows2.arrow;dy=0.64;dx=15.13;direction=north;notch=0;fontFamily=Courier New;fontSize=32;strokeColor=#000000;fillColor=#d5e8d4;" vertex="1" parent="cGqSHI6FsU9cF26Kj_ui-108">
          <mxGeometry x="40" width="20" height="30" as="geometry" />
        </mxCell>
        <mxCell id="cGqSHI6FsU9cF26Kj_ui-112" value="" style="html=1;shadow=0;dashed=0;align=center;verticalAlign=middle;shape=mxgraph.arrows2.arrow;dy=0.64;dx=15.13;direction=north;notch=0;fontFamily=Courier New;fontSize=32;strokeColor=#000000;fillColor=#dae8fc;" vertex="1" parent="cGqSHI6FsU9cF26Kj_ui-108">
          <mxGeometry x="60" width="20" height="30" as="geometry" />
        </mxCell>
        <mxCell id="cGqSHI6FsU9cF26Kj_ui-113" value="" style="html=1;shadow=0;dashed=0;align=center;verticalAlign=middle;shape=mxgraph.arrows2.arrow;dy=0.64;dx=15.13;direction=north;notch=0;fontFamily=Courier New;fontSize=32;" vertex="1" parent="cGqSHI6FsU9cF26Kj_ui-108">
          <mxGeometry x="80" width="20" height="30" as="geometry" />
        </mxCell>
        <mxCell id="cGqSHI6FsU9cF26Kj_ui-114" value="" style="html=1;shadow=0;dashed=0;align=center;verticalAlign=middle;shape=mxgraph.arrows2.arrow;dy=0.64;dx=15.13;direction=north;notch=0;fontFamily=Courier New;fontSize=32;fillColor=#ffe6cc;strokeColor=#000000;" vertex="1" parent="cGqSHI6FsU9cF26Kj_ui-108">
          <mxGeometry x="100" width="20" height="30" as="geometry" />
        </mxCell>
        <mxCell id="cGqSHI6FsU9cF26Kj_ui-107" value="" style="group" vertex="1" connectable="0" parent="cGqSHI6FsU9cF26Kj_ui-51">
          <mxGeometry y="310" width="120" height="30" as="geometry" />
        </mxCell>
        <mxCell id="cGqSHI6FsU9cF26Kj_ui-101" value="" style="html=1;shadow=0;dashed=0;align=center;verticalAlign=middle;shape=mxgraph.arrows2.arrow;dy=0.64;dx=15.13;direction=north;notch=0;fontFamily=Courier New;fontSize=32;strokeColor=#000000;fillColor=#f8cecc;" vertex="1" parent="cGqSHI6FsU9cF26Kj_ui-107">
          <mxGeometry width="20" height="30" as="geometry" />
        </mxCell>
        <mxCell id="cGqSHI6FsU9cF26Kj_ui-102" value="" style="html=1;shadow=0;dashed=0;align=center;verticalAlign=middle;shape=mxgraph.arrows2.arrow;dy=0.64;dx=15.13;direction=north;notch=0;fontFamily=Courier New;fontSize=32;strokeColor=#000000;fillColor=#fff2cc;" vertex="1" parent="cGqSHI6FsU9cF26Kj_ui-107">
          <mxGeometry x="20" width="20" height="30" as="geometry" />
        </mxCell>
        <mxCell id="cGqSHI6FsU9cF26Kj_ui-103" value="" style="html=1;shadow=0;dashed=0;align=center;verticalAlign=middle;shape=mxgraph.arrows2.arrow;dy=0.64;dx=15.13;direction=north;notch=0;fontFamily=Courier New;fontSize=32;strokeColor=#000000;fillColor=#d5e8d4;" vertex="1" parent="cGqSHI6FsU9cF26Kj_ui-107">
          <mxGeometry x="40" width="20" height="30" as="geometry" />
        </mxCell>
        <mxCell id="cGqSHI6FsU9cF26Kj_ui-104" value="" style="html=1;shadow=0;dashed=0;align=center;verticalAlign=middle;shape=mxgraph.arrows2.arrow;dy=0.64;dx=15.13;direction=north;notch=0;fontFamily=Courier New;fontSize=32;strokeColor=#000000;fillColor=#dae8fc;" vertex="1" parent="cGqSHI6FsU9cF26Kj_ui-107">
          <mxGeometry x="60" width="20" height="30" as="geometry" />
        </mxCell>
        <mxCell id="cGqSHI6FsU9cF26Kj_ui-105" value="" style="html=1;shadow=0;dashed=0;align=center;verticalAlign=middle;shape=mxgraph.arrows2.arrow;dy=0.64;dx=15.13;direction=north;notch=0;fontFamily=Courier New;fontSize=32;" vertex="1" parent="cGqSHI6FsU9cF26Kj_ui-107">
          <mxGeometry x="80" width="20" height="30" as="geometry" />
        </mxCell>
        <mxCell id="cGqSHI6FsU9cF26Kj_ui-106" value="" style="html=1;shadow=0;dashed=0;align=center;verticalAlign=middle;shape=mxgraph.arrows2.arrow;dy=0.64;dx=15.13;direction=north;notch=0;fontFamily=Courier New;fontSize=32;fillColor=#ffe6cc;strokeColor=#000000;" vertex="1" parent="cGqSHI6FsU9cF26Kj_ui-107">
          <mxGeometry x="100" width="20" height="30" as="geometry" />
        </mxCell>
        <mxCell id="cGqSHI6FsU9cF26Kj_ui-180" value="" style="group" vertex="1" connectable="0" parent="1">
          <mxGeometry x="-120" y="550" width="1440" height="440" as="geometry" />
        </mxCell>
        <mxCell id="cGqSHI6FsU9cF26Kj_ui-181" value="" style="rounded=0;whiteSpace=wrap;html=1;fillColor=#DDDDDD;" vertex="1" parent="cGqSHI6FsU9cF26Kj_ui-180">
          <mxGeometry x="150" width="1240" height="310" as="geometry" />
        </mxCell>
        <mxCell id="cGqSHI6FsU9cF26Kj_ui-182" value="" style="rounded=0;whiteSpace=wrap;html=1;fillColor=#DDDDDD;" vertex="1" parent="cGqSHI6FsU9cF26Kj_ui-180">
          <mxGeometry x="315" y="70" width="925" height="240" as="geometry" />
        </mxCell>
        <mxCell id="cGqSHI6FsU9cF26Kj_ui-183" value="&amp;nbsp;&lt;span style=&quot;white-space: pre&quot;&gt;	&lt;/span&gt;" style="rounded=0;whiteSpace=wrap;html=1;fillColor=#DDDDDD;strokeColor=#000000;" vertex="1" parent="cGqSHI6FsU9cF26Kj_ui-180">
          <mxGeometry x="480" y="110" width="600" height="200" as="geometry" />
        </mxCell>
        <mxCell id="cGqSHI6FsU9cF26Kj_ui-184" value="R2" style="rounded=0;whiteSpace=wrap;html=1;fillColor=#DDDDDD;strokeColor=#000000;" vertex="1" parent="cGqSHI6FsU9cF26Kj_ui-180">
          <mxGeometry x="80" y="160" width="160" height="150" as="geometry" />
        </mxCell>
        <mxCell id="cGqSHI6FsU9cF26Kj_ui-185" value="R1" style="rounded=0;whiteSpace=wrap;html=1;fillColor=#DDDDDD;" vertex="1" parent="cGqSHI6FsU9cF26Kj_ui-180">
          <mxGeometry y="310" width="1440" height="130" as="geometry" />
        </mxCell>
        <mxCell id="cGqSHI6FsU9cF26Kj_ui-186" value="R3" style="rounded=0;whiteSpace=wrap;html=1;fillColor=#DDDDDD;strokeColor=#000000;fontSize=32;fontStyle=1;fontFamily=Courier New;" vertex="1" parent="cGqSHI6FsU9cF26Kj_ui-180">
          <mxGeometry x="240" y="160" width="160" height="150" as="geometry" />
        </mxCell>
        <mxCell id="cGqSHI6FsU9cF26Kj_ui-187" value="R4" style="rounded=0;whiteSpace=wrap;html=1;fillColor=#DDDDDD;strokeColor=#000000;fontSize=32;fontStyle=1;fontFamily=Courier New;" vertex="1" parent="cGqSHI6FsU9cF26Kj_ui-180">
          <mxGeometry x="400" y="160" width="160" height="150" as="geometry" />
        </mxCell>
        <mxCell id="cGqSHI6FsU9cF26Kj_ui-188" value="R5" style="rounded=0;whiteSpace=wrap;html=1;fillColor=#DDDDDD;strokeColor=#000000;fontSize=32;fontStyle=1;fontFamily=Courier New;" vertex="1" parent="cGqSHI6FsU9cF26Kj_ui-180">
          <mxGeometry x="560" y="160" width="160" height="150" as="geometry" />
        </mxCell>
        <mxCell id="cGqSHI6FsU9cF26Kj_ui-189" value="R6" style="rounded=0;whiteSpace=wrap;html=1;fillColor=#DDDDDD;fontSize=32;fontStyle=1;fontFamily=Courier New;" vertex="1" parent="cGqSHI6FsU9cF26Kj_ui-180">
          <mxGeometry x="720" y="160" width="160" height="150" as="geometry" />
        </mxCell>
        <mxCell id="cGqSHI6FsU9cF26Kj_ui-190" value="R7" style="text;html=1;strokeColor=none;fillColor=none;align=center;verticalAlign=middle;whiteSpace=wrap;rounded=0;fontSize=32;fontFamily=Courier New;fontStyle=1" vertex="1" parent="cGqSHI6FsU9cF26Kj_ui-180">
          <mxGeometry x="960" y="220" width="60" height="30" as="geometry" />
        </mxCell>
        <mxCell id="cGqSHI6FsU9cF26Kj_ui-191" value="R9" style="text;html=1;strokeColor=none;fillColor=none;align=center;verticalAlign=middle;whiteSpace=wrap;rounded=0;fontSize=32;fontFamily=Courier New;fontStyle=1" vertex="1" parent="cGqSHI6FsU9cF26Kj_ui-180">
          <mxGeometry x="1300" y="220" width="60" height="30" as="geometry" />
        </mxCell>
        <mxCell id="cGqSHI6FsU9cF26Kj_ui-192" value="R2" style="rounded=0;whiteSpace=wrap;html=1;fillColor=#DDDDDD;strokeColor=#000000;fontSize=32;fontStyle=1;fontFamily=Courier New;" vertex="1" parent="cGqSHI6FsU9cF26Kj_ui-180">
          <mxGeometry x="80" y="160" width="160" height="150" as="geometry" />
        </mxCell>
        <mxCell id="cGqSHI6FsU9cF26Kj_ui-193" value="R1" style="rounded=0;whiteSpace=wrap;html=1;fillColor=#DDDDDD;fontSize=32;fontStyle=1;fontFamily=Courier New;" vertex="1" parent="cGqSHI6FsU9cF26Kj_ui-180">
          <mxGeometry y="310" width="1440" height="130" as="geometry" />
        </mxCell>
        <mxCell id="cGqSHI6FsU9cF26Kj_ui-194" value="R8" style="text;html=1;strokeColor=none;fillColor=none;align=center;verticalAlign=middle;whiteSpace=wrap;rounded=0;fontSize=32;fontFamily=Courier New;fontStyle=1" vertex="1" parent="cGqSHI6FsU9cF26Kj_ui-180">
          <mxGeometry x="1140" y="220" width="60" height="30" as="geometry" />
        </mxCell>
        <mxCell id="cGqSHI6FsU9cF26Kj_ui-195" value="" style="html=1;shadow=0;dashed=0;align=center;verticalAlign=middle;shape=mxgraph.arrows2.arrow;dy=0.64;dx=15.13;direction=north;notch=0;fontFamily=Courier New;fontSize=32;strokeColor=#000000;fillColor=#f8cecc;" vertex="1" parent="cGqSHI6FsU9cF26Kj_ui-180">
          <mxGeometry x="100" y="160" width="20" height="30" as="geometry" />
        </mxCell>
        <mxCell id="cGqSHI6FsU9cF26Kj_ui-196" value="" style="html=1;shadow=0;dashed=0;align=center;verticalAlign=middle;shape=mxgraph.arrows2.arrow;dy=0.64;dx=15.13;direction=north;notch=0;fontFamily=Courier New;fontSize=32;strokeColor=#000000;fillColor=#fff2cc;" vertex="1" parent="cGqSHI6FsU9cF26Kj_ui-180">
          <mxGeometry x="120" y="160" width="20" height="30" as="geometry" />
        </mxCell>
        <mxCell id="cGqSHI6FsU9cF26Kj_ui-197" value="" style="html=1;shadow=0;dashed=0;align=center;verticalAlign=middle;shape=mxgraph.arrows2.arrow;dy=0.64;dx=15.13;direction=north;notch=0;fontFamily=Courier New;fontSize=32;strokeColor=#000000;fillColor=#d5e8d4;" vertex="1" parent="cGqSHI6FsU9cF26Kj_ui-180">
          <mxGeometry x="140" y="160" width="20" height="30" as="geometry" />
        </mxCell>
        <mxCell id="cGqSHI6FsU9cF26Kj_ui-198" value="" style="html=1;shadow=0;dashed=0;align=center;verticalAlign=middle;shape=mxgraph.arrows2.arrow;dy=0.64;dx=15.13;direction=north;notch=0;fontFamily=Courier New;fontSize=32;strokeColor=#000000;fillColor=#dae8fc;" vertex="1" parent="cGqSHI6FsU9cF26Kj_ui-180">
          <mxGeometry x="160" y="160" width="20" height="30" as="geometry" />
        </mxCell>
        <mxCell id="cGqSHI6FsU9cF26Kj_ui-199" value="" style="html=1;shadow=0;dashed=0;align=center;verticalAlign=middle;shape=mxgraph.arrows2.arrow;dy=0.64;dx=15.13;direction=north;notch=0;fontFamily=Courier New;fontSize=32;" vertex="1" parent="cGqSHI6FsU9cF26Kj_ui-180">
          <mxGeometry x="180" y="160" width="20" height="30" as="geometry" />
        </mxCell>
        <mxCell id="cGqSHI6FsU9cF26Kj_ui-200" value="" style="html=1;shadow=0;dashed=0;align=center;verticalAlign=middle;shape=mxgraph.arrows2.arrow;dy=0.64;dx=15.13;direction=north;notch=0;fontFamily=Courier New;fontSize=32;fillColor=#ffe6cc;strokeColor=#000000;" vertex="1" parent="cGqSHI6FsU9cF26Kj_ui-180">
          <mxGeometry x="200" y="160" width="20" height="30" as="geometry" />
        </mxCell>
        <mxCell id="cGqSHI6FsU9cF26Kj_ui-201" value="" style="group" vertex="1" connectable="0" parent="cGqSHI6FsU9cF26Kj_ui-180">
          <mxGeometry x="740" y="160" width="120" height="30" as="geometry" />
        </mxCell>
        <mxCell id="cGqSHI6FsU9cF26Kj_ui-202" value="" style="html=1;shadow=0;dashed=0;align=center;verticalAlign=middle;shape=mxgraph.arrows2.arrow;dy=0.64;dx=15.13;direction=north;notch=0;fontFamily=Courier New;fontSize=32;strokeColor=#000000;fillColor=#f8cecc;" vertex="1" parent="cGqSHI6FsU9cF26Kj_ui-201">
          <mxGeometry width="20" height="30" as="geometry" />
        </mxCell>
        <mxCell id="cGqSHI6FsU9cF26Kj_ui-203" value="" style="html=1;shadow=0;dashed=0;align=center;verticalAlign=middle;shape=mxgraph.arrows2.arrow;dy=0.64;dx=15.13;direction=north;notch=0;fontFamily=Courier New;fontSize=32;strokeColor=#000000;fillColor=#fff2cc;" vertex="1" parent="cGqSHI6FsU9cF26Kj_ui-201">
          <mxGeometry x="20" width="20" height="30" as="geometry" />
        </mxCell>
        <mxCell id="cGqSHI6FsU9cF26Kj_ui-204" value="" style="html=1;shadow=0;dashed=0;align=center;verticalAlign=middle;shape=mxgraph.arrows2.arrow;dy=0.64;dx=15.13;direction=north;notch=0;fontFamily=Courier New;fontSize=32;strokeColor=#000000;fillColor=#d5e8d4;" vertex="1" parent="cGqSHI6FsU9cF26Kj_ui-201">
          <mxGeometry x="40" width="20" height="30" as="geometry" />
        </mxCell>
        <mxCell id="cGqSHI6FsU9cF26Kj_ui-205" value="" style="html=1;shadow=0;dashed=0;align=center;verticalAlign=middle;shape=mxgraph.arrows2.arrow;dy=0.64;dx=15.13;direction=north;notch=0;fontFamily=Courier New;fontSize=32;strokeColor=#000000;fillColor=#dae8fc;" vertex="1" parent="cGqSHI6FsU9cF26Kj_ui-201">
          <mxGeometry x="60" width="20" height="30" as="geometry" />
        </mxCell>
        <mxCell id="cGqSHI6FsU9cF26Kj_ui-206" value="" style="html=1;shadow=0;dashed=0;align=center;verticalAlign=middle;shape=mxgraph.arrows2.arrow;dy=0.64;dx=15.13;direction=north;notch=0;fontFamily=Courier New;fontSize=32;" vertex="1" parent="cGqSHI6FsU9cF26Kj_ui-201">
          <mxGeometry x="80" width="20" height="30" as="geometry" />
        </mxCell>
        <mxCell id="cGqSHI6FsU9cF26Kj_ui-207" value="" style="html=1;shadow=0;dashed=0;align=center;verticalAlign=middle;shape=mxgraph.arrows2.arrow;dy=0.64;dx=15.13;direction=north;notch=0;fontFamily=Courier New;fontSize=32;fillColor=#ffe6cc;strokeColor=#000000;" vertex="1" parent="cGqSHI6FsU9cF26Kj_ui-201">
          <mxGeometry x="100" width="20" height="30" as="geometry" />
        </mxCell>
        <mxCell id="cGqSHI6FsU9cF26Kj_ui-208" value="" style="group" vertex="1" connectable="0" parent="cGqSHI6FsU9cF26Kj_ui-180">
          <mxGeometry x="960" y="110" width="120" height="30" as="geometry" />
        </mxCell>
        <mxCell id="cGqSHI6FsU9cF26Kj_ui-209" value="" style="html=1;shadow=0;dashed=0;align=center;verticalAlign=middle;shape=mxgraph.arrows2.arrow;dy=0.64;dx=15.13;direction=north;notch=0;fontFamily=Courier New;fontSize=32;strokeColor=#000000;fillColor=#f8cecc;" vertex="1" parent="cGqSHI6FsU9cF26Kj_ui-208">
          <mxGeometry width="20" height="30" as="geometry" />
        </mxCell>
        <mxCell id="cGqSHI6FsU9cF26Kj_ui-210" value="" style="html=1;shadow=0;dashed=0;align=center;verticalAlign=middle;shape=mxgraph.arrows2.arrow;dy=0.64;dx=15.13;direction=north;notch=0;fontFamily=Courier New;fontSize=32;strokeColor=#000000;fillColor=#fff2cc;" vertex="1" parent="cGqSHI6FsU9cF26Kj_ui-208">
          <mxGeometry x="20" width="20" height="30" as="geometry" />
        </mxCell>
        <mxCell id="cGqSHI6FsU9cF26Kj_ui-211" value="" style="html=1;shadow=0;dashed=0;align=center;verticalAlign=middle;shape=mxgraph.arrows2.arrow;dy=0.64;dx=15.13;direction=north;notch=0;fontFamily=Courier New;fontSize=32;strokeColor=#000000;fillColor=#d5e8d4;" vertex="1" parent="cGqSHI6FsU9cF26Kj_ui-208">
          <mxGeometry x="40" width="20" height="30" as="geometry" />
        </mxCell>
        <mxCell id="cGqSHI6FsU9cF26Kj_ui-212" value="" style="html=1;shadow=0;dashed=0;align=center;verticalAlign=middle;shape=mxgraph.arrows2.arrow;dy=0.64;dx=15.13;direction=north;notch=0;fontFamily=Courier New;fontSize=32;strokeColor=#000000;fillColor=#dae8fc;" vertex="1" parent="cGqSHI6FsU9cF26Kj_ui-208">
          <mxGeometry x="60" width="20" height="30" as="geometry" />
        </mxCell>
        <mxCell id="cGqSHI6FsU9cF26Kj_ui-213" value="" style="html=1;shadow=0;dashed=0;align=center;verticalAlign=middle;shape=mxgraph.arrows2.arrow;dy=0.64;dx=15.13;direction=north;notch=0;fontFamily=Courier New;fontSize=32;" vertex="1" parent="cGqSHI6FsU9cF26Kj_ui-208">
          <mxGeometry x="80" width="20" height="30" as="geometry" />
        </mxCell>
        <mxCell id="cGqSHI6FsU9cF26Kj_ui-214" value="" style="html=1;shadow=0;dashed=0;align=center;verticalAlign=middle;shape=mxgraph.arrows2.arrow;dy=0.64;dx=15.13;direction=north;notch=0;fontFamily=Courier New;fontSize=32;fillColor=#ffe6cc;strokeColor=#000000;" vertex="1" parent="cGqSHI6FsU9cF26Kj_ui-208">
          <mxGeometry x="100" width="20" height="30" as="geometry" />
        </mxCell>
        <mxCell id="cGqSHI6FsU9cF26Kj_ui-215" value="" style="group" vertex="1" connectable="0" parent="cGqSHI6FsU9cF26Kj_ui-180">
          <mxGeometry x="1120" y="70" width="120" height="30" as="geometry" />
        </mxCell>
        <mxCell id="cGqSHI6FsU9cF26Kj_ui-216" value="" style="html=1;shadow=0;dashed=0;align=center;verticalAlign=middle;shape=mxgraph.arrows2.arrow;dy=0.64;dx=15.13;direction=north;notch=0;fontFamily=Courier New;fontSize=32;strokeColor=#000000;fillColor=#f8cecc;" vertex="1" parent="cGqSHI6FsU9cF26Kj_ui-215">
          <mxGeometry width="20" height="30" as="geometry" />
        </mxCell>
        <mxCell id="cGqSHI6FsU9cF26Kj_ui-217" value="" style="html=1;shadow=0;dashed=0;align=center;verticalAlign=middle;shape=mxgraph.arrows2.arrow;dy=0.64;dx=15.13;direction=north;notch=0;fontFamily=Courier New;fontSize=32;strokeColor=#000000;fillColor=#fff2cc;" vertex="1" parent="cGqSHI6FsU9cF26Kj_ui-215">
          <mxGeometry x="20" width="20" height="30" as="geometry" />
        </mxCell>
        <mxCell id="cGqSHI6FsU9cF26Kj_ui-218" value="" style="html=1;shadow=0;dashed=0;align=center;verticalAlign=middle;shape=mxgraph.arrows2.arrow;dy=0.64;dx=15.13;direction=north;notch=0;fontFamily=Courier New;fontSize=32;strokeColor=#000000;fillColor=#d5e8d4;" vertex="1" parent="cGqSHI6FsU9cF26Kj_ui-215">
          <mxGeometry x="40" width="20" height="30" as="geometry" />
        </mxCell>
        <mxCell id="cGqSHI6FsU9cF26Kj_ui-219" value="" style="html=1;shadow=0;dashed=0;align=center;verticalAlign=middle;shape=mxgraph.arrows2.arrow;dy=0.64;dx=15.13;direction=north;notch=0;fontFamily=Courier New;fontSize=32;strokeColor=#000000;fillColor=#dae8fc;" vertex="1" parent="cGqSHI6FsU9cF26Kj_ui-215">
          <mxGeometry x="60" width="20" height="30" as="geometry" />
        </mxCell>
        <mxCell id="cGqSHI6FsU9cF26Kj_ui-220" value="" style="html=1;shadow=0;dashed=0;align=center;verticalAlign=middle;shape=mxgraph.arrows2.arrow;dy=0.64;dx=15.13;direction=north;notch=0;fontFamily=Courier New;fontSize=32;" vertex="1" parent="cGqSHI6FsU9cF26Kj_ui-215">
          <mxGeometry x="80" width="20" height="30" as="geometry" />
        </mxCell>
        <mxCell id="cGqSHI6FsU9cF26Kj_ui-221" value="" style="html=1;shadow=0;dashed=0;align=center;verticalAlign=middle;shape=mxgraph.arrows2.arrow;dy=0.64;dx=15.13;direction=north;notch=0;fontFamily=Courier New;fontSize=32;fillColor=#ffe6cc;strokeColor=#000000;" vertex="1" parent="cGqSHI6FsU9cF26Kj_ui-215">
          <mxGeometry x="100" width="20" height="30" as="geometry" />
        </mxCell>
        <mxCell id="cGqSHI6FsU9cF26Kj_ui-222" value="" style="group" vertex="1" connectable="0" parent="cGqSHI6FsU9cF26Kj_ui-180">
          <mxGeometry x="1270" width="120" height="30" as="geometry" />
        </mxCell>
        <mxCell id="cGqSHI6FsU9cF26Kj_ui-223" value="" style="html=1;shadow=0;dashed=0;align=center;verticalAlign=middle;shape=mxgraph.arrows2.arrow;dy=0.64;dx=15.13;direction=north;notch=0;fontFamily=Courier New;fontSize=32;strokeColor=#000000;fillColor=#f8cecc;" vertex="1" parent="cGqSHI6FsU9cF26Kj_ui-222">
          <mxGeometry width="20" height="30" as="geometry" />
        </mxCell>
        <mxCell id="cGqSHI6FsU9cF26Kj_ui-224" value="" style="html=1;shadow=0;dashed=0;align=center;verticalAlign=middle;shape=mxgraph.arrows2.arrow;dy=0.64;dx=15.13;direction=north;notch=0;fontFamily=Courier New;fontSize=32;strokeColor=#000000;fillColor=#fff2cc;" vertex="1" parent="cGqSHI6FsU9cF26Kj_ui-222">
          <mxGeometry x="20" width="20" height="30" as="geometry" />
        </mxCell>
        <mxCell id="cGqSHI6FsU9cF26Kj_ui-225" value="" style="html=1;shadow=0;dashed=0;align=center;verticalAlign=middle;shape=mxgraph.arrows2.arrow;dy=0.64;dx=15.13;direction=north;notch=0;fontFamily=Courier New;fontSize=32;strokeColor=#000000;fillColor=#d5e8d4;" vertex="1" parent="cGqSHI6FsU9cF26Kj_ui-222">
          <mxGeometry x="40" width="20" height="30" as="geometry" />
        </mxCell>
        <mxCell id="cGqSHI6FsU9cF26Kj_ui-226" value="" style="html=1;shadow=0;dashed=0;align=center;verticalAlign=middle;shape=mxgraph.arrows2.arrow;dy=0.64;dx=15.13;direction=north;notch=0;fontFamily=Courier New;fontSize=32;strokeColor=#000000;fillColor=#dae8fc;" vertex="1" parent="cGqSHI6FsU9cF26Kj_ui-222">
          <mxGeometry x="60" width="20" height="30" as="geometry" />
        </mxCell>
        <mxCell id="cGqSHI6FsU9cF26Kj_ui-227" value="" style="html=1;shadow=0;dashed=0;align=center;verticalAlign=middle;shape=mxgraph.arrows2.arrow;dy=0.64;dx=15.13;direction=north;notch=0;fontFamily=Courier New;fontSize=32;" vertex="1" parent="cGqSHI6FsU9cF26Kj_ui-222">
          <mxGeometry x="80" width="20" height="30" as="geometry" />
        </mxCell>
        <mxCell id="cGqSHI6FsU9cF26Kj_ui-228" value="" style="html=1;shadow=0;dashed=0;align=center;verticalAlign=middle;shape=mxgraph.arrows2.arrow;dy=0.64;dx=15.13;direction=north;notch=0;fontFamily=Courier New;fontSize=32;fillColor=#ffe6cc;strokeColor=#000000;" vertex="1" parent="cGqSHI6FsU9cF26Kj_ui-222">
          <mxGeometry x="100" width="20" height="30" as="geometry" />
        </mxCell>
        <mxCell id="cGqSHI6FsU9cF26Kj_ui-229" value="" style="group" vertex="1" connectable="0" parent="cGqSHI6FsU9cF26Kj_ui-180">
          <mxGeometry x="580" y="160" width="120" height="30" as="geometry" />
        </mxCell>
        <mxCell id="cGqSHI6FsU9cF26Kj_ui-230" value="" style="html=1;shadow=0;dashed=0;align=center;verticalAlign=middle;shape=mxgraph.arrows2.arrow;dy=0.64;dx=15.13;direction=north;notch=0;fontFamily=Courier New;fontSize=32;strokeColor=#000000;fillColor=#f8cecc;" vertex="1" parent="cGqSHI6FsU9cF26Kj_ui-229">
          <mxGeometry width="20" height="30" as="geometry" />
        </mxCell>
        <mxCell id="cGqSHI6FsU9cF26Kj_ui-231" value="" style="html=1;shadow=0;dashed=0;align=center;verticalAlign=middle;shape=mxgraph.arrows2.arrow;dy=0.64;dx=15.13;direction=north;notch=0;fontFamily=Courier New;fontSize=32;strokeColor=#000000;fillColor=#fff2cc;" vertex="1" parent="cGqSHI6FsU9cF26Kj_ui-229">
          <mxGeometry x="20" width="20" height="30" as="geometry" />
        </mxCell>
        <mxCell id="cGqSHI6FsU9cF26Kj_ui-232" value="" style="html=1;shadow=0;dashed=0;align=center;verticalAlign=middle;shape=mxgraph.arrows2.arrow;dy=0.64;dx=15.13;direction=north;notch=0;fontFamily=Courier New;fontSize=32;strokeColor=#000000;fillColor=#d5e8d4;" vertex="1" parent="cGqSHI6FsU9cF26Kj_ui-229">
          <mxGeometry x="40" width="20" height="30" as="geometry" />
        </mxCell>
        <mxCell id="cGqSHI6FsU9cF26Kj_ui-233" value="" style="html=1;shadow=0;dashed=0;align=center;verticalAlign=middle;shape=mxgraph.arrows2.arrow;dy=0.64;dx=15.13;direction=north;notch=0;fontFamily=Courier New;fontSize=32;strokeColor=#000000;fillColor=#dae8fc;" vertex="1" parent="cGqSHI6FsU9cF26Kj_ui-229">
          <mxGeometry x="60" width="20" height="30" as="geometry" />
        </mxCell>
        <mxCell id="cGqSHI6FsU9cF26Kj_ui-234" value="" style="html=1;shadow=0;dashed=0;align=center;verticalAlign=middle;shape=mxgraph.arrows2.arrow;dy=0.64;dx=15.13;direction=north;notch=0;fontFamily=Courier New;fontSize=32;" vertex="1" parent="cGqSHI6FsU9cF26Kj_ui-229">
          <mxGeometry x="80" width="20" height="30" as="geometry" />
        </mxCell>
        <mxCell id="cGqSHI6FsU9cF26Kj_ui-235" value="" style="html=1;shadow=0;dashed=0;align=center;verticalAlign=middle;shape=mxgraph.arrows2.arrow;dy=0.64;dx=15.13;direction=north;notch=0;fontFamily=Courier New;fontSize=32;fillColor=#ffe6cc;strokeColor=#000000;" vertex="1" parent="cGqSHI6FsU9cF26Kj_ui-229">
          <mxGeometry x="100" width="20" height="30" as="geometry" />
        </mxCell>
        <mxCell id="cGqSHI6FsU9cF26Kj_ui-236" value="" style="group" vertex="1" connectable="0" parent="cGqSHI6FsU9cF26Kj_ui-180">
          <mxGeometry x="420" y="160" width="120" height="30" as="geometry" />
        </mxCell>
        <mxCell id="cGqSHI6FsU9cF26Kj_ui-237" value="" style="html=1;shadow=0;dashed=0;align=center;verticalAlign=middle;shape=mxgraph.arrows2.arrow;dy=0.64;dx=15.13;direction=north;notch=0;fontFamily=Courier New;fontSize=32;strokeColor=#000000;fillColor=#f8cecc;" vertex="1" parent="cGqSHI6FsU9cF26Kj_ui-236">
          <mxGeometry width="20" height="30" as="geometry" />
        </mxCell>
        <mxCell id="cGqSHI6FsU9cF26Kj_ui-238" value="" style="html=1;shadow=0;dashed=0;align=center;verticalAlign=middle;shape=mxgraph.arrows2.arrow;dy=0.64;dx=15.13;direction=north;notch=0;fontFamily=Courier New;fontSize=32;strokeColor=#000000;fillColor=#fff2cc;" vertex="1" parent="cGqSHI6FsU9cF26Kj_ui-236">
          <mxGeometry x="20" width="20" height="30" as="geometry" />
        </mxCell>
        <mxCell id="cGqSHI6FsU9cF26Kj_ui-239" value="" style="html=1;shadow=0;dashed=0;align=center;verticalAlign=middle;shape=mxgraph.arrows2.arrow;dy=0.64;dx=15.13;direction=north;notch=0;fontFamily=Courier New;fontSize=32;strokeColor=#000000;fillColor=#d5e8d4;" vertex="1" parent="cGqSHI6FsU9cF26Kj_ui-236">
          <mxGeometry x="40" width="20" height="30" as="geometry" />
        </mxCell>
        <mxCell id="cGqSHI6FsU9cF26Kj_ui-240" value="" style="html=1;shadow=0;dashed=0;align=center;verticalAlign=middle;shape=mxgraph.arrows2.arrow;dy=0.64;dx=15.13;direction=north;notch=0;fontFamily=Courier New;fontSize=32;strokeColor=#000000;fillColor=#dae8fc;" vertex="1" parent="cGqSHI6FsU9cF26Kj_ui-236">
          <mxGeometry x="60" width="20" height="30" as="geometry" />
        </mxCell>
        <mxCell id="cGqSHI6FsU9cF26Kj_ui-241" value="" style="html=1;shadow=0;dashed=0;align=center;verticalAlign=middle;shape=mxgraph.arrows2.arrow;dy=0.64;dx=15.13;direction=north;notch=0;fontFamily=Courier New;fontSize=32;" vertex="1" parent="cGqSHI6FsU9cF26Kj_ui-236">
          <mxGeometry x="80" width="20" height="30" as="geometry" />
        </mxCell>
        <mxCell id="cGqSHI6FsU9cF26Kj_ui-242" value="" style="html=1;shadow=0;dashed=0;align=center;verticalAlign=middle;shape=mxgraph.arrows2.arrow;dy=0.64;dx=15.13;direction=north;notch=0;fontFamily=Courier New;fontSize=32;fillColor=#ffe6cc;strokeColor=#000000;" vertex="1" parent="cGqSHI6FsU9cF26Kj_ui-236">
          <mxGeometry x="100" width="20" height="30" as="geometry" />
        </mxCell>
        <mxCell id="cGqSHI6FsU9cF26Kj_ui-243" value="" style="group" vertex="1" connectable="0" parent="cGqSHI6FsU9cF26Kj_ui-180">
          <mxGeometry x="260" y="160" width="120" height="30" as="geometry" />
        </mxCell>
        <mxCell id="cGqSHI6FsU9cF26Kj_ui-244" value="" style="html=1;shadow=0;dashed=0;align=center;verticalAlign=middle;shape=mxgraph.arrows2.arrow;dy=0.64;dx=15.13;direction=north;notch=0;fontFamily=Courier New;fontSize=32;strokeColor=#000000;fillColor=#f8cecc;" vertex="1" parent="cGqSHI6FsU9cF26Kj_ui-243">
          <mxGeometry width="20" height="30" as="geometry" />
        </mxCell>
        <mxCell id="cGqSHI6FsU9cF26Kj_ui-245" value="" style="html=1;shadow=0;dashed=0;align=center;verticalAlign=middle;shape=mxgraph.arrows2.arrow;dy=0.64;dx=15.13;direction=north;notch=0;fontFamily=Courier New;fontSize=32;strokeColor=#000000;fillColor=#fff2cc;" vertex="1" parent="cGqSHI6FsU9cF26Kj_ui-243">
          <mxGeometry x="20" width="20" height="30" as="geometry" />
        </mxCell>
        <mxCell id="cGqSHI6FsU9cF26Kj_ui-246" value="" style="html=1;shadow=0;dashed=0;align=center;verticalAlign=middle;shape=mxgraph.arrows2.arrow;dy=0.64;dx=15.13;direction=north;notch=0;fontFamily=Courier New;fontSize=32;strokeColor=#000000;fillColor=#d5e8d4;" vertex="1" parent="cGqSHI6FsU9cF26Kj_ui-243">
          <mxGeometry x="40" width="20" height="30" as="geometry" />
        </mxCell>
        <mxCell id="cGqSHI6FsU9cF26Kj_ui-247" value="" style="html=1;shadow=0;dashed=0;align=center;verticalAlign=middle;shape=mxgraph.arrows2.arrow;dy=0.64;dx=15.13;direction=north;notch=0;fontFamily=Courier New;fontSize=32;strokeColor=#000000;fillColor=#dae8fc;" vertex="1" parent="cGqSHI6FsU9cF26Kj_ui-243">
          <mxGeometry x="60" width="20" height="30" as="geometry" />
        </mxCell>
        <mxCell id="cGqSHI6FsU9cF26Kj_ui-248" value="" style="html=1;shadow=0;dashed=0;align=center;verticalAlign=middle;shape=mxgraph.arrows2.arrow;dy=0.64;dx=15.13;direction=north;notch=0;fontFamily=Courier New;fontSize=32;" vertex="1" parent="cGqSHI6FsU9cF26Kj_ui-243">
          <mxGeometry x="80" width="20" height="30" as="geometry" />
        </mxCell>
        <mxCell id="cGqSHI6FsU9cF26Kj_ui-249" value="" style="html=1;shadow=0;dashed=0;align=center;verticalAlign=middle;shape=mxgraph.arrows2.arrow;dy=0.64;dx=15.13;direction=north;notch=0;fontFamily=Courier New;fontSize=32;fillColor=#ffe6cc;strokeColor=#000000;" vertex="1" parent="cGqSHI6FsU9cF26Kj_ui-243">
          <mxGeometry x="100" width="20" height="30" as="geometry" />
        </mxCell>
        <mxCell id="cGqSHI6FsU9cF26Kj_ui-250" value="" style="group" vertex="1" connectable="0" parent="cGqSHI6FsU9cF26Kj_ui-180">
          <mxGeometry y="310" width="120" height="30" as="geometry" />
        </mxCell>
        <mxCell id="cGqSHI6FsU9cF26Kj_ui-251" value="" style="html=1;shadow=0;dashed=0;align=center;verticalAlign=middle;shape=mxgraph.arrows2.arrow;dy=0.64;dx=15.13;direction=north;notch=0;fontFamily=Courier New;fontSize=32;strokeColor=#000000;fillColor=#f8cecc;" vertex="1" parent="cGqSHI6FsU9cF26Kj_ui-250">
          <mxGeometry width="20" height="30" as="geometry" />
        </mxCell>
        <mxCell id="cGqSHI6FsU9cF26Kj_ui-252" value="" style="html=1;shadow=0;dashed=0;align=center;verticalAlign=middle;shape=mxgraph.arrows2.arrow;dy=0.64;dx=15.13;direction=north;notch=0;fontFamily=Courier New;fontSize=32;strokeColor=#000000;fillColor=#fff2cc;" vertex="1" parent="cGqSHI6FsU9cF26Kj_ui-250">
          <mxGeometry x="20" width="20" height="30" as="geometry" />
        </mxCell>
        <mxCell id="cGqSHI6FsU9cF26Kj_ui-253" value="" style="html=1;shadow=0;dashed=0;align=center;verticalAlign=middle;shape=mxgraph.arrows2.arrow;dy=0.64;dx=15.13;direction=north;notch=0;fontFamily=Courier New;fontSize=32;strokeColor=#000000;fillColor=#d5e8d4;" vertex="1" parent="cGqSHI6FsU9cF26Kj_ui-250">
          <mxGeometry x="40" width="20" height="30" as="geometry" />
        </mxCell>
        <mxCell id="cGqSHI6FsU9cF26Kj_ui-254" value="" style="html=1;shadow=0;dashed=0;align=center;verticalAlign=middle;shape=mxgraph.arrows2.arrow;dy=0.64;dx=15.13;direction=north;notch=0;fontFamily=Courier New;fontSize=32;strokeColor=#000000;fillColor=#dae8fc;" vertex="1" parent="cGqSHI6FsU9cF26Kj_ui-250">
          <mxGeometry x="60" width="20" height="30" as="geometry" />
        </mxCell>
        <mxCell id="cGqSHI6FsU9cF26Kj_ui-255" value="" style="html=1;shadow=0;dashed=0;align=center;verticalAlign=middle;shape=mxgraph.arrows2.arrow;dy=0.64;dx=15.13;direction=north;notch=0;fontFamily=Courier New;fontSize=32;" vertex="1" parent="cGqSHI6FsU9cF26Kj_ui-250">
          <mxGeometry x="80" width="20" height="30" as="geometry" />
        </mxCell>
        <mxCell id="cGqSHI6FsU9cF26Kj_ui-256" value="" style="html=1;shadow=0;dashed=0;align=center;verticalAlign=middle;shape=mxgraph.arrows2.arrow;dy=0.64;dx=15.13;direction=north;notch=0;fontFamily=Courier New;fontSize=32;fillColor=#ffe6cc;strokeColor=#000000;" vertex="1" parent="cGqSHI6FsU9cF26Kj_ui-250">
          <mxGeometry x="100" width="20" height="30" as="geometry" />
        </mxCell>
      </root>
    </mxGraphModel>
  </diagram>
</mxfile>
